<svg width="1383" height="1053" fill="none" xmlns="http://www.w3.org/2000/svg"><path opacity=".1" d="M1100.96 804.062l21.87-19.619-163.87-175.04L1383 93.669l-21.86-19.445-421.786 513.303-116.595-130.214L1326 51.957l-18.57-22.744-504.277 406.224-185.997-207.822L840.11 21.529 820.157 0 597.55 205.739 414.329.869l-21.861 19.618 183.568 205.218-225.209 207.996-73.393-62.677L187.212 7.118l-28.455 7.119 80.332 323.973L19.606 150.528l-9.543 23.959 241.345 212.684 27.935 112.678L0 757.847l19.953 21.529 267.371-247.06 67.493 271.714-259.042 213.03 18.565 22.74 248.285-204.171 52.398 211.291 28.455-7.12-55.695-224.832 185.65-152.611L743.641 807.85l-200.571 225.7 21.861 19.45L765.85 826.774l174.892 149.313 19.086-22.397-174.372-148.965 153.898-173.272 161.606 172.609zM595.642 247.407l184.782 206.607L573.78 623.987 373.382 452.799l222.26-205.392zM289.753 419.985l39.559 33.682-25.332 23.438-14.227-57.12zm90.049 363.384l-68.014-273.797 39.733-36.634L550.53 642.912 379.802 783.369zm383.272 2.431L596.336 643.432 800.03 475.89l119.545 133.687L763.074 785.8z" fill="#fff"/></svg>