<svg width="1111" height="907" fill="none" xmlns="http://www.w3.org/2000/svg"><path opacity=".1" d="M1131.34 692.678l18.81-16.891-141.02-150.7 364.93-444.02-18.82-16.74-362.984 441.926-100.342-112.107L1325 45.156l-15.98-19.581-433.979 349.737-160.069-178.924L906.846 18.959 889.675.424l-191.576 177.13L540.419 1.171l-18.814 16.891 157.979 176.682-193.815 179.073-63.162-53.961L344.962 6.552l-24.489 6.129 69.135 278.924L200.72 130.02l-8.212 20.628 207.701 183.109 24.041 97.011L0 796.791l17.172 18.535L431.118 458.72l58.085 233.931-222.932 183.408 15.977 19.582 213.674-175.785 45.094 181.913 24.489-6.128-47.932-193.573 159.771-131.39 146.481 125.261-172.612 194.32 18.814 16.742 172.911-194.769 150.513 128.551 16.429-19.283-150.069-128.251 132.445-149.178 139.084 148.607zm-434.883-479.25l159.024 177.878-177.838 146.337L505.18 390.259l191.277-176.831zm-263.248 148.58l34.044 28.999-21.8 20.179-12.244-49.178zm77.496 312.855l-58.533-235.725 34.194-31.539 171.268 146.337-146.929 120.927zm329.844 2.093L697.054 554.385l175.3-144.245 102.88 115.097-134.685 151.719z" fill="#D4B982"/><path transform="rotate(90 458.818 34)" fill="url(#paint0_linear)" d="M458.818 34h873v458.819h-873z"/><path transform="rotate(90 458.818 34)" fill="url(#paint1_linear)" d="M458.818 34h873v458.819h-873z"/><path fill="url(#paint2_linear)" d="M255.788 448.115h872.874V907H255.788z"/><path fill="url(#paint3_linear)" d="M255.788 448.115h872.874V907H255.788z"/><defs><linearGradient id="paint0_linear" x1="895.318" y1="34" x2="895.318" y2="492.819" gradientUnits="userSpaceOnUse"><stop stop-color="#fff" stop-opacity="0"/><stop offset="1" stop-color="#fff"/></linearGradient><linearGradient id="paint1_linear" x1="895.318" y1="34" x2="895.318" y2="492.819" gradientUnits="userSpaceOnUse"><stop stop-color="#fff" stop-opacity="0"/><stop offset="1" stop-color="#fff"/></linearGradient><linearGradient id="paint2_linear" x1="692.225" y1="448.115" x2="692.225" y2="907" gradientUnits="userSpaceOnUse"><stop stop-color="#fff" stop-opacity="0"/><stop offset="1" stop-color="#fff"/></linearGradient><linearGradient id="paint3_linear" x1="692.225" y1="448.115" x2="692.225" y2="907" gradientUnits="userSpaceOnUse"><stop stop-color="#fff" stop-opacity="0"/><stop offset="1" stop-color="#fff"/></linearGradient></defs></svg>