<svg width="741" height="485" fill="none" xmlns="http://www.w3.org/2000/svg"><g opacity=".9"><path opacity=".9" d="M211.489 302.798S173.594 111.858 84.516 5.185C78.53-1.987 66.994.273 64.2 9.188 45.529 68.817 7.244 250.355 211.49 302.798z" fill="#5C5C5C"/><path opacity=".9" d="M193.09 289.904c.446.469-.192 1.161-.698.757-18.583-14.917-89.887-87.481-112.074-227.709-.073-.45.592-.595.7-.155 8.1 32.613 41.664 153.001 112.072 227.107z" fill="#D4B982"/></g><path d="M185.912 319.575S113.508 168.588 16.477 98.784C9.955 94.091.825 98.443.405 106.472c-2.813 53.683 4.106 213.149 185.507 213.103z" fill="#292620"/><path d="M167.824 312.769c.473.294.09 1.009-.419.777-18.677-8.449-93.607-53.64-142.076-165.735-.155-.36.367-.625.552-.277 13.722 25.44 67.43 118.568 141.943 165.235z" fill="#D4B982"/><path d="M631.646 240.419s-6.065-70.85 33.188-92.665c37.657-20.925 48.168-2.398 65.453-30.184.79-1.267 2.734-.854 2.929.628 2.072 15.893 5.579 69.726-39.878 80.444-52.526 12.387-61.692 41.777-61.692 41.777z" fill="#5C5C5C"/><path d="M726.212 133.767c-.393 1.347-1.018 2.68-1.656 3.964-.35.632-.658 1.287-1.041 1.899l-1.134 1.849c-.843 1.178-1.623 2.398-2.562 3.503-.456.563-.895 1.135-1.361 1.691l-1.465 1.604c-3.933 4.255-8.485 7.904-13.315 11.096-4.799 3.259-10.038 5.806-15.301 8.218l-4.033 1.634c-1.342.546-2.684 1.092-4.062 1.622l-2.053.807-2.03.867c-1.361.555-2.68 1.214-4.019 1.826-2.644 1.3-5.262 2.66-7.778 4.211-1.279.741-2.496 1.585-3.735 2.389-1.203.863-2.427 1.697-3.583 2.626a63.51 63.51 0 00-12.449 12.698c-3.54 4.797-6.334 10.12-8.532 15.625-2.214 5.505-3.857 11.182-5.51 16.769v.004a1.536 1.536 0 102.952.843c1.563-5.637 3.081-11.228 5.14-16.604 2.043-5.373 4.638-10.524 7.956-15.185a61.322 61.322 0 0111.791-12.436c1.104-.92 2.281-1.75 3.435-2.61 1.196-.804 2.366-1.644 3.599-2.389 2.427-1.558 4.972-2.934 7.544-4.251 1.305-.622 2.588-1.29 3.92-1.862l1.983-.887 2.01-.827a208.574 208.574 0 004.043-1.694l4.056-1.723c5.295-2.535 10.554-5.204 15.374-8.599 4.846-3.321 9.407-7.106 13.331-11.499 3.884-4.4 7.361-9.29 9.156-15.01a.342.342 0 10-.654-.205v.007l-.017.029z" fill="#D4B982"/><g opacity=".88"><path opacity=".88" d="M624.468 254.263l5.183-3.077c-2.621-40.341 4.72-114.443 45.002-134.634 27.284-13.676 37.432-28.92 35.395-61.494-1.355-21.729 5.844-36.749 10.79-44.341 1.004-1.545-.662-3.424-2.311-2.61-16.633 8.21-59.963 32.5-79.789 71.118-24.815 48.347-14.27 175.038-14.27 175.038z" fill="#292620"/><path opacity=".88" d="M692.851 35.133c-2.132 1.19-4.007 2.564-5.861 4.023-.919.73-1.844 1.455-2.711 2.25l-1.322 1.16-.661.583-.631.612-2.526 2.448c-.816.84-1.606 1.703-2.409 2.557l-1.204 1.284c-.4.43-.763.886-1.147 1.33l-2.274 2.676c-5.96 7.225-11.087 15.099-15.638 23.26l-1.713 3.06-.426.765-.393.784-.784 1.568-3.133 6.273-2.85 6.404-1.421 3.203c-.45 1.078-.856 2.173-1.289 3.259l-2.552 6.527c-.44 1.082-.817 2.187-1.207 3.291l-1.163 3.309c-.727 2.22-1.458 4.439-2.149 6.673l-1.001 3.357-.5 1.681-.462 1.691a312.72 312.72 0 00-6.251 27.309 386.206 386.206 0 00-3.997 27.721c-.509 4.641-.912 9.293-1.272 13.947a446.778 446.778 0 00-.81 13.981 406.066 406.066 0 00-.354 14.004c-.029 4.678-.003 9.329.192 14.047a1.536 1.536 0 103.071-.129v-.036c-.225-4.582-.288-9.24-.291-13.869 0-4.635.089-9.273.251-13.908s.397-9.266.704-13.895c.324-4.628.691-9.249 1.164-13.865a384.03 384.03 0 013.768-27.561c1.607-9.134 3.593-18.199 6.006-27.144l.447-1.681.482-1.667.969-3.338c.667-2.217 1.378-4.423 2.082-6.63l1.127-3.285c.377-1.095.741-2.194 1.17-3.272l2.486-6.491c.42-1.078.817-2.17 1.253-3.242l1.385-3.186 2.777-6.368 3.061-6.236.763-1.559.384-.78.42-.761 1.675-3.04c4.446-8.116 9.464-15.94 15.295-23.116l2.225-2.656c.373-.44.73-.897 1.12-1.32l1.174-1.27c.787-.844 1.56-1.704 2.357-2.538l2.469-2.425.618-.605.645-.576 1.289-1.151c.846-.784 1.745-1.499 2.641-2.224.879-.744 1.825-1.396 2.74-2.084.936-.645 1.904-1.3 2.853-1.83l.04-.022a.724.724 0 00.281-.986.714.714 0 00-.982-.291z" fill="#D4B982"/></g><path d="M135.741 440.241H18.265a6.787 6.787 0 01-6.783-6.788V319.932a6.785 6.785 0 016.764-6.788l118.414-.318a6.784 6.784 0 016.799 6.825l-.938 113.838a6.783 6.783 0 01-6.78 6.752z" fill="#5C5C5C"/><path d="M129.983 321.518l-105.04.648a6.883 6.883 0 00-6.84 6.921l.734 95.477a6.887 6.887 0 006.757 6.855l102.059 1.862a6.884 6.884 0 007.007-6.792l2.248-97.987c.053-3.858-3.071-7.011-6.925-6.984z" fill="#fff"/><path d="M125.712 330.37v.724a2.06 2.06 0 01-2.059 2.061H42.72a2.06 2.06 0 01-2.06-2.061v-.724a2.06 2.06 0 012.06-2.061h80.933a2.06 2.06 0 012.059 2.061zM116.68 339.488a2.06 2.06 0 01-2.02 1.949l-70.781 1.29a2.06 2.06 0 01-2.096-2.061v-.169c0-1.125.903-2.041 2.026-2.061l70.782-1.121a2.06 2.06 0 012.089 2.173zM123.907 427.878h-.07l-95.735-1.151a5.834 5.834 0 01-4.142-1.783 5.831 5.831 0 01-1.652-4.198l2.462-67.423a5.822 5.822 0 011.799-4.102 5.873 5.873 0 014.181-1.638l95.567 1.862c3.229.063 5.807 2.743 5.751 5.975v.017l-2.297 66.691c-.056 3.18-2.681 5.75-5.864 5.75zm-93.273-78.343a3.877 3.877 0 00-2.71 1.095 3.888 3.888 0 00-1.2 2.749l-2.463 67.423a3.878 3.878 0 001.104 2.782 3.89 3.89 0 002.764 1.191l95.735 1.151h.046a3.926 3.926 0 003.914-3.847l2.297-66.702a3.924 3.924 0 00-3.838-3.98l-95.566-1.862h-.083zm100.459 5.869h.003-.003z" fill="#D4B982"/><path d="M129.85 362.544H25.59a.975.975 0 010-1.952h104.26a.975.975 0 110 1.952z" fill="#D4B982"/><path d="M633.41 406.638c0 5.697-4.281 10.359-9.513 10.359H109.436c-5.233 0-9.514-4.662-9.514-10.359l-4.28-322.216c0-5.697 6.158-16.82 17.446-15.986l502.79-14.18c6.564-.184 12.914 2.568 17.562 7.62 4.647 5.051 7.193 11.956 7.037 19.105l-7.067 325.657z" fill="#292620"/><path d="M624.016 396.7c0 5.396-4.05 9.809-9.002 9.809H121.841c-4.952 0-9.001-4.413-9.001-9.809l-4.039-292.511c.476-17.604 14.637-23.93 23.218-23.555l481.878-14.09c4.611-.136 9.071 1.803 12.34 5.353 3.266 3.55 5.064 8.412 4.948 13.438L624.016 396.7z" fill="#F8F8F8"/><path d="M146.008 396.177c-7.949 0-14.567-6.259-14.785-14.03l-7.732-272.834c-.225-7.894 6.175-14.54 14.267-14.821l466.567-16.069c4.099-.145 8.115 1.406 11.011 4.245 2.829 2.776 4.356 6.458 4.303 10.375l-3.989 283.625c-.113 7.887-6.532 14.137-14.617 14.233l-454.846 5.276h-.179zm-8.234-301.03l.023.655c-7.371.255-13.202 6.296-13 13.471l7.731 272.834c.202 7.067 6.231 12.757 13.477 12.757h.162l454.846-5.277c7.368-.086 13.219-5.769 13.318-12.938l3.989-283.626c.05-3.553-1.338-6.898-3.91-9.419-2.641-2.59-6.304-4-10.049-3.87L137.797 95.805l-.023-.658z" fill="#5C5C5C"/><path d="M672.664 443.747H71.095a2.49 2.49 0 01-2.482-2.484v-23.347a2.49 2.49 0 012.482-2.484h601.569a2.49 2.49 0 012.482 2.484v23.347a2.49 2.49 0 01-2.482 2.484z" fill="#292620"/><path d="M146.149 102.303l334.372-7.84c5.438-.13 9.94 3.11 9.94 7.149v3.718c0 3.881-4.168 7.05-9.391 7.15l-334.23 6.282c-5.229.099-9.609-2.918-9.867-6.795l-.145-2.16c-.265-3.997 3.933-7.375 9.321-7.504z" fill="#5C5C5C"/><path d="M480.474 103.333c.711-5.667-3.223-10.828-8.786-11.526-5.563-.698-10.647 3.332-11.355 9.002a10.419 10.419 0 002.261 7.903l-10.353 7.973a1.442 1.442 0 00-.145 2.111l.096.099a1.338 1.338 0 001.9.053l9.408-9.27a9.972 9.972 0 005.623 2.657c5.56.695 10.644-3.335 11.351-9.002zm-11.011 6.256c-4.072-.509-6.955-4.291-6.436-8.443.519-4.151 4.245-7.103 8.317-6.593 4.072.51 6.955 4.29 6.436 8.443-.519 4.152-4.241 7.103-8.317 6.593z" fill="#D4B982"/><path d="M139.852 246.38l5.576 124.911c.189 4.211 6.539 7.552 14.237 7.496l163.704-1.234c7.695-.059 13.873-3.493 13.853-7.702l-.568-126.085c-.02-4.314-6.529-7.774-14.416-7.662l-168.708 2.405c-7.748.113-13.867 3.633-13.678 7.871zM368.699 127.803l102.624-1.251c10.505-.129 19.212 3.285 19.301 7.566l1.742 84.874c.089 4.278-8.469 7.748-18.971 7.695l-106.835-.532c-6.009-.03-10.885-1.992-11.027-4.44l-5.011-86.101c-.241-4.195 7.877-7.685 18.177-7.811zM165.609 125.863l146.036-1.287c14.947-.132 27.34 3.388 27.465 7.797l2.479 87.471c.126 4.407-12.052 7.987-26.996 7.934l-152.032-.549c-8.554-.03-15.489-2.055-15.691-4.576l-7.13-88.738c-.344-4.327 11.209-7.923 25.869-8.052zM368.453 236.951l102.624-1.833c10.505-.188 19.211 4.824 19.301 11.11l1.742 124.616c.089 6.279-8.469 11.377-18.971 11.301l-106.835-.784c-6.009-.043-10.885-2.925-11.027-6.517l-5.011-126.42c-.242-6.166 7.877-11.291 18.177-11.473zM519.11 90.675l80.06-1.29c8.195-.133 14.991 3.394 15.057 7.814l1.359 87.666c.069 4.416-6.608 8.002-14.799 7.95l-83.35-.553c-4.69-.03-8.491-2.058-8.604-4.585l-3.907-88.937c-.188-4.33 6.145-7.933 14.184-8.065zM521.077 204.589l80.06-1.012c8.194-.103 14.991 2.663 15.057 6.13l1.358 68.786c.07 3.467-6.607 6.279-14.799 6.236l-83.349-.433c-4.69-.023-8.492-1.615-8.604-3.6l-3.907-69.781c-.189-3.398 6.148-6.223 14.184-6.326zM524.895 295.236l80.06-1.079c8.194-.109 14.991 2.835 15.057 6.531l1.358 73.258c.07 3.692-6.608 6.69-14.799 6.643l-83.349-.459c-4.69-.027-8.492-1.721-8.604-3.831l-3.907-74.318c-.189-3.626 6.148-6.639 14.184-6.745z" fill="#DDD"/><path d="M450.078 237.884h-87.551c-2.793 0-5.054-1.674-5.054-3.738v-62.504c0-2.061 2.255-3.731 5.041-3.738l88.251-.175c2.807-.007 5.084 1.68 5.068 3.758l-.701 62.678c-.013 2.058-2.271 3.719-5.054 3.719z" fill="#5C5C5C"/><path d="M445.79 172.512l-78.285.357c-2.83.013-5.11 1.717-5.097 3.811l.545 52.569c.013 2.061 2.248 3.738 5.035 3.775l76.063 1.025c2.84.04 5.183-1.637 5.223-3.738l1.676-53.952c.04-2.124-2.287-3.86-5.16-3.847z" fill="#fff"/><path d="M442.606 177.389v.4c0 .625-.688 1.135-1.534 1.135h-60.319c-.847 0-1.534-.51-1.534-1.135v-.4c0-.626.687-1.135 1.534-1.135h60.319c.846 0 1.534.509 1.534 1.135zM435.877 182.407c-.043.595-.7 1.062-1.504 1.072l-52.753.711c-.859.013-1.563-.5-1.563-1.135v-.093c0-.618.671-1.124 1.51-1.134l52.753-.619c.89-.007 1.604.543 1.557 1.198zM441.261 231.267h-.053l-71.35-.632c-1.368-.013-2.624-.506-3.441-1.353-.588-.609-.899-1.367-.879-2.141l1.838-37.129c.046-1.846 2-3.334 4.37-3.334h.082l71.225 1.025c1.358.02 2.605.516 3.415 1.357.581.605.892 1.363.875 2.13v.017l-1.712 36.722c-.046 1.872-1.96 3.338-4.37 3.338zm-69.515-43.137c-1.56 0-2.889.877-2.916 1.935l-1.838 37.129c-.013.467.252.844.473 1.072.542.559 1.441.9 2.407.91l71.35.632h.036c1.56 0 2.892-.88 2.919-1.936l1.712-36.728c.01-.48-.251-.85-.469-1.079-.536-.555-1.428-.896-2.387-.909l-71.224-1.026h-.063zm74.87 3.04h.004-.004z" fill="#D4B982"/><path d="M445.691 195.293h-77.703a.728.728 0 010-1.457h77.703a.727.727 0 010 1.457zM386.463 235.964s17.982 23.039-2.535 46.475l-7.712-.718s14.845-23.859 8.234-42.875l-10.925.797-6.042-3.94 18.98.261zM376.616 348.771s-14.567 31.78-22.21 44.94c0 0-1.517 8.281 0 10.888l1.293.575-6.04-.179s-.535-11.138-.119-11.76c.42-.622 1.257-.583 1.257-.583s2.588-20.528 10.088-24.908l7.266-25.047 8.465 6.074z" fill="#D4B982"/><path d="M358.276 406.733c.01.145-4.713.079-7.282.033a2.04 2.04 0 01-1.957-1.611l-1.937-10.19a1.828 1.828 0 011.392-2.127l1.081-.248s1.543 2.117 1.058 4.112c-.486 1.995-.919 7.162.31 7.765 1.227.602 4.76.708 4.76.708s2.496.244 2.575 1.558zM390.422 406.919c.48.271.281 1.002-.267.995-4.294-.043-13.917-.178-14.773-.536-1.104-.459.403-4.429 1.987-5.773l8.753 2.859 4.3 2.455z" fill="#292620"/><path d="M393.14 346.744s-9.414 45.582-12.078 54.471l6.3 3.957s-3.156-.536-5.497-.708c-2.34-.169-4.495-2.859-4.495-2.859l.753-1.204s2.36-45.333 1.785-50.481l13.232-3.176zM416.51 240.429s1.299 23.71-20.27 35.825l5.193 11.854s19.529-11.821 18.805-44.063a3.765 3.765 0 01.916-2.525l4.152-4.82a7.462 7.462 0 001.583-6.679l-.545-2.187a1.13 1.13 0 00-1.666-.705l-.433.252a7.618 7.618 0 00-3.127 3.48l-2.04 4.559a4.377 4.377 0 01-4.373 2.577l-1.259-.109 3.064 2.541z" fill="#D4B982"/><path d="M396.99 274.477c-3.609 1.003-15.833 4.222-23.466 4.089l4.688 26.466-.374 4.318 15.278-.07s4.301-9.997 7.696-14.98c.978-1.439.251-3.156-.305-4.806l.764-.51a2.075 2.075 0 00.823-2.375l-3.722-11.394c-.195-.576-.8-.9-1.382-.738z" fill="#5C5C5C"/><path d="M394.341 307.02l-.301 2.614s4.317 12.942-2.159 43.163c0 0-14.025 3.977-25.555-5.538 0 0 3.253-28.527 4.139-29.857 4.423-6.62 7.371-8.059 7.371-8.059l.132-2.859c.004.007 12.333 2.237 16.373.536z" fill="#5C5C5C"/><path d="M388.359 276.612c.053-.07-3.19-9.8-3.19-9.8l-4.644.424-1.815 11.036c-.003-.003 7.279 1.469 9.649-1.66z" fill="#D4B982"/><path d="M381.637 251.468c.311.192 9.927 4.172 7.861 14.163a1.876 1.876 0 01-1.068 1.337c-1.411.628-4.449 1.707-8.082 1.339-5.038-.512-8.34-9.309-8.198-11.87.139-2.56 6.416-6.881 9.487-4.969z" fill="#D4B982"/><path d="M378.712 247.585c1.924.251 3.894 2.22 3.613 4.238-.271 1.938-2.347 2.359-3.279 3.761-2.155 3.249-.195 8.797 1.808 11.692 6.029 8.714 15.916 19.297 9.136 30.654-4.403 7.374-14.217 11.553-22.567 10.62-4.439-.496-8.743-5.121-10.835-8.83-2.942-5.214-3.484-11.764-1.904-17.504 1.527-5.555 6.466-9.938 9.708-14.563 1.174-1.671 2.311-3.53 2.281-5.571-.016-1.274-.492-2.498-.638-3.765-.73-6.461 6.952-11.486 12.677-10.732z" fill="#292620"/><path d="M364.5 300.29l.149-.235c-3.084-1.922-5.005-5.769-5.005-10.04-.003-3.391 1.058-6.945 3.339-11.179.849-1.578 1.798-3.136 2.717-4.642 1.104-1.813 2.248-3.688 3.226-5.617.88-1.734 1.716-3.778 1.223-5.78-.244-.999-.806-1.935-1.348-2.838-.85-1.416-1.653-2.753-1.233-4.215l-.268-.076c-.456 1.578.416 3.03 1.259 4.436.533.887 1.085 1.803 1.319 2.763.47 1.915-.344 3.897-1.203 5.587-.975 1.919-2.116 3.788-3.216 5.598-.919 1.509-1.871 3.07-2.724 4.655-2.301 4.277-3.372 7.87-3.372 11.311 0 4.363 1.97 8.3 5.137 10.272z" fill="#DFE2E8"/><path d="M366.636 299.694l.225-.162c-2.42-3.421-3.306-8.201-2.43-13.114.87-4.87 3.26-9.31 5.25-12.631l-.238-.142c-2 3.341-4.407 7.807-5.283 12.723-.889 4.986.014 9.842 2.476 13.326z" fill="#DFE2E8"/><path d="M496.997 234.724c.056-.129.115-.258.175-.387 2.925-6.18 7.768-7.457 12.039-5.432 4.267 2.025 6.346 6.587 3.421 12.767l-.08.159c-2.879-2.157-8.406-5.648-15.555-7.107z" fill="#292620"/><path d="M512.55 241.831c-2.969 6.114-9.705 11.46-13.94 9.452-4.181-1.982-4.36-10.405-1.616-16.558 7.153 1.459 12.68 4.949 15.556 7.106z" fill="#292620"/><path d="M505.097 231.429c1.451-2.62 2.727-5.329 3.741-8.155.49-1.419.926-2.865 1.157-4.373.123-.751.172-1.522.136-2.299-.033-.774-.208-1.582-.625-2.303-.41-.724-1.13-1.277-1.907-1.532-.784-.274-1.577-.314-2.367-.264-.787.056-1.643.287-2.301.886-.677.586-.961 1.486-1.008 2.296-.053.827.116 1.628.387 2.376.281.747.655 1.465 1.263 2.074.31.291.674.602 1.239.681.281.033.599-.023.843-.168.258-.143.417-.338.575-.53.5-.79.615-1.584.734-2.355a.534.534 0 10-1.054-.162c0 .006 0 .01-.004.016l-.003.027c-.082.691-.221 1.412-.519 1.892-.165.222-.291.298-.459.285-.182-.014-.447-.179-.668-.391-.459-.436-.813-1.062-1.061-1.7-.245-.642-.4-1.333-.367-1.995.03-.658.231-1.297.691-1.704.446-.423 1.097-.635 1.778-.695 1.382-.142 2.879.189 3.554 1.353.34.566.515 1.254.555 1.962.043.708.013 1.433-.093 2.154-.198 1.446-.598 2.872-1.054 4.274-.949 2.799-2.175 5.518-3.563 8.132l-.004.007a.225.225 0 00.093.304.24.24 0 00.311-.093zM509.831 233.639c1.14-2.733 2.469-5.402 4.033-7.91.793-1.244 1.643-2.455 2.637-3.523a10.605 10.605 0 011.607-1.436c.572-.417 1.22-.715 1.871-.811 1.329-.215 2.529.735 3.296 1.896.386.566.634 1.204.588 1.816-.023.616-.393 1.175-.879 1.615-.493.446-1.124.764-1.775.979-.652.212-1.359.331-1.987.255-.307-.037-.602-.136-.727-.272-.116-.119-.136-.264-.073-.536.182-.535.651-1.098 1.134-1.601l.016-.016a.534.534 0 10-.767-.741l-.013.013c-.522.582-1.064 1.171-1.358 2.061-.05.245-.1.49-.047.781.043.281.199.562.404.761.419.387.892.473 1.312.529.856.083 1.646-.079 2.403-.334.75-.265 1.474-.639 2.083-1.204.598-.55 1.114-1.34 1.137-2.237.046-.886-.318-1.697-.771-2.342-.459-.645-.994-1.234-1.702-1.667-.687-.44-1.57-.649-2.393-.507-.82.136-1.554.51-2.175.973-.625.466-1.187.993-1.693 1.562-1.018 1.134-1.861 2.388-2.647 3.665-1.544 2.577-2.83 5.28-3.937 8.066a.224.224 0 00.125.291.222.222 0 00.288-.123l.01-.003z" fill="#D4B982"/><path d="M506.21 236.561s-2.502 22.598 6.333 23.842c8.836 1.244 8.149-11.721-6.333-23.842zM506.209 236.562s-15.893 16.247-22.448 10.189c-6.558-6.057 3.904-13.736 22.448-10.189z" fill="#B89B61"/><path d="M504.862 237.375s-21.354 7.765-24.643-.536c-3.293-8.3 9.457-10.692 24.643.536zM507.072 238.424s7.514 21.457 16.019 18.751c8.502-2.703 2.277-14.096-16.019-18.751z" fill="#D4B982"/><path d="M512.418 258.982a.587.587 0 00.228.053c2.013.003 3.375-.629 4.046-1.886 1.973-3.692-3.21-11.493-3.431-11.824a.532.532 0 00-.883.592c1.411 2.104 4.763 8.129 3.375 10.729-.473.88-1.514 1.327-3.104 1.323a.533.533 0 00-.231 1.013z" fill="#D4B982"/><path d="M505.787 237.451s-7.54-11.701-11.966-13.802c-4.774-2.263-12.049-.152-15.622 1.148-.698.255-.658 1.251.056 1.459 8.161 2.402 17.605 6.478 27.532 11.195z" fill="#292620"/><path d="M505.017 237.084s13.823-1.568 18.25.533c4.769 2.262 7.744 9.236 9 12.829.245.701-.552 1.3-1.163.88-7.021-4.804-16.154-9.534-26.087-14.242z" fill="#292620"/><path opacity=".78" d="M529.411 247.975a.53.53 0 00.714-.695c-.192-.433-4.773-10.619-12.389-9.928a.532.532 0 10.096 1.062c6.862-.622 11.275 9.197 11.318 9.3a.543.543 0 00.261.261z" fill="#fff"/><path d="M296.402 251.764l-106.822-.959a3.754 3.754 0 00-3.788 3.778l.466 82.039a3.754 3.754 0 003.861 3.735c19.314-.576 105.063-3.12 108.848-2.961 3.741.155 1.709-65.746 1.15-82.006a3.749 3.749 0 00-3.715-3.626z" fill="#5C5C5C"/><path d="M190.014 337.197a.592.592 0 01-.595-.593l-.466-82.038a.595.595 0 01.598-.599l106.822.959c.32.004.578.255.588.573 1.382 40.195 1.408 71.051.07 78.608l-.024.132-.135.003c-14.158.199-91.481 2.498-106.845 2.955h-.013zm-.466-82.903a.256.256 0 00-.192.08.26.26 0 00-.079.192l.466 82.038c0 .146.119.268.261.268l.016.162-.006-.165c15.311-.457 92.201-2.743 106.716-2.954 1.312-7.758 1.276-38.462-.096-78.407a.272.272 0 00-.265-.258l-106.821-.956z" fill="#D4B982"/><path d="M283.509 326.716h-70.025c-2.178 0-3.533-2.372-2.429-4.251l27.723-47.166c1.157-1.968 4.046-1.816 4.995.258l13.384 29.355a2.818 2.818 0 004.469.909l5.415-4.969a2.816 2.816 0 014.218.47l14.564 20.965c1.299 1.869-.04 4.429-2.314 4.429zM214.437 283.946c5.559 0 10.065-4.51 10.065-10.073 0-5.564-4.506-10.074-10.065-10.074-5.559 0-10.065 4.51-10.065 10.074 0 5.563 4.506 10.073 10.065 10.073z" fill="#D4B982"/><path d="M122.774 350.063c2.459-9.098 10.052-16.575 18.514-18.464 1.554-.347 2.456-1.932 2.089-3.483-.003-.01-.007-.023-.007-.033-1.226-5.29 2.162-9.508 7.276-10.693 5.11-1.187 10.009 1.105 11.235 6.399.827 3.569-.231 7.589-2.578 10.189-.968 1.072-1.044 2.673-.109 3.772 5.157 6.047 7.256 15.277 5.024 23.531-3.285 12.158-14.709 17.59-26.153 14.494-11.444-3.097-18.577-13.551-15.291-25.712z" fill="#292620"/><path d="M126.333 361.667l.221-.155c-2.049-2.911-2.31-7.113-.687-10.964 1.292-3.06 3.6-5.859 7.272-8.803 1.369-1.098 2.816-2.141 4.218-3.15 1.689-1.214 3.434-2.468 5.051-3.831 1.454-1.227 2.985-2.749 3.305-4.744.159-.992.01-2.051-.135-3.073-.228-1.601-.44-3.113.496-4.271l-.212-.172c-1.011 1.25-.78 2.891-.555 4.479.142 1.003.287 2.042.135 2.991-.307 1.906-1.798 3.384-3.213 4.579-1.61 1.356-3.352 2.61-5.034 3.821-1.405 1.009-2.859 2.054-4.231 3.156-3.706 2.977-6.043 5.809-7.352 8.909-1.656 3.94-1.381 8.241.721 11.228z" fill="#5C5C5C"/><path d="M131.773 363.426l.255-.093c-1.395-3.857-.985-8.602 1.12-13.012 2.09-4.37 5.501-7.933 8.241-10.55l-.188-.195c-2.757 2.634-6.192 6.22-8.297 10.63-2.139 4.472-2.549 9.293-1.131 13.22z" fill="#5C5C5C"/><path d="M186.657 313.51l.096-3.143-3.282-6.521a4.25 4.25 0 01-.013-3.798l3.718-7.513s2.149 16.307 2.711 17.663c.565 1.356-1.531 3.791-1.531 3.791l-1.699-.479z" fill="#D4B982"/><path d="M186.753 310.367s-9.983 27.234-26.993 35.746c0 0 5.662 9.244 8.614 9.806 0 0 18.171-23.274 20.022-42.343l-1.643-3.209z" fill="#D4B982"/><path d="M118.347 474.196l-.502 4.129c-.523 1.962-3.048 6.907-6.287 6.587-1.994-.199-2.235-6.028-1.957-6.905.505-1.594 1.431-3.986 2.77-5.396h4.578a1.416 1.416 0 011.398 1.585z" fill="#292620"/><path d="M154.203 425.809l.774 4.548s-2.589 26.232-3.048 36.726a8.215 8.215 0 001.216 4.671l4.499 7.311-11.434-6.752-.228-1.396 1.871-2.577-2.453-29.388a9.007 9.007 0 011.025-4.985l2.367-4.447 5.411-3.711z" fill="#D4B982"/><path d="M158.396 480.131h-3.649a2.2 2.2 0 01-1.746-.857c-1.137-1.479-3.493-4.367-4.621-4.44-1.517-.103-1.322 5.297-1.322 5.297h-.849l-1.078-6.71a3.974 3.974 0 012.082-4.151s.348 2.567 2.228 3.701c1.881 1.135 7.653 5.201 7.653 5.201s.707-.099 1.484.04c1.15.212.988 1.919-.182 1.919z" fill="#292620"/><path d="M138.541 427.97s-15.159 28.778-17.569 35.349c-2.41 6.57-3.253 12.052-3.286 12.571-.049.811-1.058 1.588-3.838 1.588-1.434 0-2.135-.576-2.479-1.131a1.633 1.633 0 01-.063-1.572c.876-1.776 3.66-7.453 4.691-10.027 1.23-3.074 3.877-17.005 5.329-21.845 1.451-4.843 3.094-10.097 9.414-14.937 0 .004 4.34-4.248 7.801.004z" fill="#D4B982"/><path d="M148.118 380.814c2.221-9.416-.013-16.508-2.36-20.882a7.062 7.062 0 012.955-9.63c5.484-2.855 11.05-4.189 11.05-4.189s10.869 7.95 9.58 14.176c-.757 3.649-7.639 21.848-7.639 21.848s-6.367 3.017-13.586-1.323z" fill="#5C5C5C"/><path d="M139.446 389.024c1.59-4.797 8.671-8.212 8.671-8.212 7.219 4.341 13.582 1.324 13.582 1.324s1.428 5.462.443 10.533c-.985 5.075-7.166 37.685-7.166 37.685-9.738 1.975-24.716-1.988-24.716-1.988 6.201-11.017 7.596-34.545 9.186-39.342z" fill="#5C5C5C"/><path d="M152.656 335.155l-3.18 14.292c-.304 1.26.843 1.052 2.115.814 2.083-.394 4.767-1.201 5.666-2.826.093-.165.135-.35.162-.539l1.365-9.912a1.783 1.783 0 00-1.041-1.872l-2.635-1.171a1.784 1.784 0 00-2.452 1.214z" fill="#D4B982"/><path d="M192.395 325.715s-8.366 29.093-42.109 26.357c-2.158-.175-4.056 1.426-4.224 3.586l-.09 1.168c-.244 3.13 2.311 5.77 5.445 5.611 11.222-.569 35.323-4.979 43.583-31.667l-2.605-5.055z" fill="#D4B982"/><path d="M194.997 330.773s1.606-4.735 2.013-7.696c.403-2.96-1.084-9.604-2.36-11.473-1.279-1.869-1.491 2.713-2.066 4.864-.575 2.15.4 5.223.4 5.223l-.588 4.026 2.601 5.056zM159.174 323.366s8.039 11.721 3.041 14.987c-4.998 3.265-10.723-5.065-10.723-5.065s-1.795-6.366.248-8.476c2.042-2.108 7.434-1.446 7.434-1.446z" fill="#D4B982"/><path d="M155.804 320.52s3.498.9 3.96 2.501c.463 1.601-5.041 2.971-6.574 3.014l-1.359 6.395s-3.54-6.107-2.026-9.568c1.514-3.46 5.999-2.342 5.999-2.342z" fill="#D4B982"/><path d="M153.109 332.466s-3.144-3.785-4.469-1.383c-1.326 2.405 2.813 4.308 4.281 3.143l.188-1.76zM245.616 184.726a.337.337 0 00-.089.38l1.57 3.798a17.877 17.877 0 00-2.542 5.211l-3.953 1.098a.343.343 0 00-.248.304l-.301 4.92a.335.335 0 00.208.331l3.788 1.574a17.88 17.88 0 001.888 5.482l-2.02 3.577a.345.345 0 00.04.39l3.262 3.692a.338.338 0 00.381.089l3.794-1.571a17.872 17.872 0 005.207 2.544l1.097 3.957c.04.139.162.238.304.248l4.915.301a.334.334 0 00.331-.209l1.573-3.791a17.841 17.841 0 005.478-1.889l3.573 2.021c.126.07.281.053.39-.039l3.689-3.266a.337.337 0 00.089-.38l-1.57-3.798a17.859 17.859 0 002.542-5.21l3.954-1.099a.342.342 0 00.247-.304l.301-4.92a.334.334 0 00-.208-.33l-3.788-1.575a17.89 17.89 0 00-1.888-5.482l2.02-3.576a.347.347 0 00-.04-.391l-3.262-3.692a.337.337 0 00-.38-.089l-3.795 1.571a17.879 17.879 0 00-5.206-2.544l-1.098-3.956a.342.342 0 00-.304-.248l-4.915-.301a.342.342 0 00-.334.208l-1.573 3.791a17.841 17.841 0 00-5.478 1.889l-3.573-2.021a.343.343 0 00-.39.04l-3.686 3.265z" fill="#D4B982"/><path d="M258.942 203.477l-.004-.004a5.01 5.01 0 01-2.112-3.238 5.033 5.033 0 01.793-3.785 5.009 5.009 0 013.237-2.114 5.057 5.057 0 015.897 4.029 5.029 5.029 0 01-.794 3.785 5.004 5.004 0 01-3.236 2.114 5.01 5.01 0 01-3.781-.787zm4.925-7.232a3.696 3.696 0 00-2.767-.582 3.655 3.655 0 00-2.367 1.548 3.678 3.678 0 00-.581 2.772 3.663 3.663 0 001.55 2.372 3.673 3.673 0 002.767.579 3.653 3.653 0 002.366-1.548 3.693 3.693 0 00-.968-5.141z" fill="#D4B982"/><path d="M254.803 209.769c-3.54-2.416-5.761-6.584-5.48-11.163.049-.794.172-1.581.367-2.345.026-.099.049-.195.079-.295l1.302.368a11.225 11.225 0 00-.396 2.355c-.053.887-.004 1.757.142 2.594v.006a11.253 11.253 0 006.601 8.384c.889.383 1.838.658 2.833.803l.096.014.079.01c.066.01.132.016.202.023.181.02.363.036.548.046a11.124 11.124 0 008.109-2.792 11.136 11.136 0 003.762-7.715 11.15 11.15 0 00-2.79-8.115 11.144 11.144 0 00-7.709-3.765 11.164 11.164 0 00-5.841 1.234l-.621-1.201a12.53 12.53 0 016.545-1.383 12.468 12.468 0 018.637 4.218 12.5 12.5 0 013.127 9.098 12.483 12.483 0 01-2.142 6.296 12.594 12.594 0 01-2.072 2.352 12.481 12.481 0 01-9.091 3.13 12.556 12.556 0 01-6.287-2.157z" fill="#D4B982"/><g clip-path="url(#clip0)"><rect x="246.054" y="183.154" width="31.519" height="31.545" rx="15.759" fill="#fff"/><path d="M255.508 192.89h-1.74l4.745 13.425 2.657-7.597-2.06-5.828h-1.836v-1.279h8.132v1.279h-1.904l4.745 13.425 1.706-4.878c2.237-6.25-1.834-8.197-1.834-9.592a2.524 2.524 0 012.744-2.515 13.137 13.137 0 00-9.05-3.6c-4.578 0-8.611 2.336-10.975 5.881h4.67v1.279zM248.627 198.926c0 5.053 2.837 9.442 7.004 11.659l-5.951-16.835a13.177 13.177 0 00-1.053 5.176zM273.289 192.424c.189 1.111.132 2.361-.158 3.615h.053l-.2.57c-.118.412-.267.833-.436 1.247l-4.537 12.721a13.195 13.195 0 006.988-11.65c0-2.365-.622-4.584-1.71-6.503z" fill="#D4B982"/><path d="M257.746 211.482c1.281.416 2.648.641 4.067.641 1.354 0 2.66-.205 3.889-.584l-3.857-10.912-4.099 10.855z" fill="#D4B982"/><path d="M272.957 187.774a15.651 15.651 0 00-11.144-4.62 15.649 15.649 0 00-11.143 4.62 15.674 15.674 0 00-4.616 11.153c0 4.213 1.639 8.174 4.616 11.153a15.648 15.648 0 0011.143 4.619c4.21 0 8.167-1.64 11.144-4.619a15.679 15.679 0 004.616-11.153 15.683 15.683 0 00-4.616-11.153zm-11.144 25.813c-8.077 0-14.648-6.577-14.648-14.66 0-8.084 6.571-14.66 14.648-14.66s14.648 6.576 14.648 14.66c0 8.083-6.571 14.66-14.648 14.66z" fill="#D4B982"/></g><path d="M309.561 115.87a.502.502 0 00-.526-.261l-6.082.959a26.843 26.843 0 00-6.7-5.538l-.215-6.153a.506.506 0 00-.357-.466l-7.061-2.164a.507.507 0 00-.558.185l-3.623 4.979a26.73 26.73 0 00-8.651.834l-4.502-4.202a.501.501 0 00-.582-.076l-6.522 3.467a.502.502 0 00-.261.526l.959 6.088a26.835 26.835 0 00-5.534 6.705l-6.148.215a.508.508 0 00-.466.358l-2.162 7.066a.51.51 0 00.185.559l4.975 3.626a26.881 26.881 0 00.83 8.658l-4.198 4.506a.504.504 0 00-.076.582l3.464 6.527a.5.5 0 00.525.262l6.083-.96a26.804 26.804 0 006.7 5.538l.215 6.154a.506.506 0 00.357.466l7.06 2.164a.51.51 0 00.559-.185l3.623-4.979a26.73 26.73 0 008.651-.834l4.502 4.201a.502.502 0 00.582.077l6.521-3.468a.498.498 0 00.261-.526l-.958-6.087a26.797 26.797 0 005.533-6.706l6.149-.215a.506.506 0 00.466-.357l2.162-7.066a.51.51 0 00-.186-.56l-4.974-3.625a26.91 26.91 0 00-.833-8.658l4.198-4.506a.503.503 0 00.076-.582l-3.461-6.528z" fill="#D4B982"/><path d="M278.894 140.527a7.215 7.215 0 01-1.594-1.323 7.194 7.194 0 01-1.857-5.207 7.167 7.167 0 012.366-4.996 7.183 7.183 0 015.203-1.859 7.154 7.154 0 014.992 2.369 7.192 7.192 0 011.857 5.207 7.16 7.16 0 01-2.366 4.995 7.178 7.178 0 01-5.203 1.86 7.198 7.198 0 01-3.398-1.046zm6.832-11.211a5.837 5.837 0 00-2.776-.854 5.85 5.85 0 00-4.251 1.518 5.876 5.876 0 00-1.934 4.083 5.855 5.855 0 001.517 4.254 5.859 5.859 0 004.079 1.936 5.847 5.847 0 004.251-1.519 5.872 5.872 0 001.934-4.082 5.863 5.863 0 00-1.517-4.255 5.974 5.974 0 00-1.303-1.081zm-2.747-1.516l.004.004-.004-.004z" fill="#D4B982"/><path d="M272.876 150.224c-7.021-4.298-10.548-12.969-8.029-21.2a18.471 18.471 0 011.901-4.231c4.294-7.03 12.957-10.56 21.182-8.039a18.865 18.865 0 013.302 1.369c.106.057.211.116.317.172l-.645 1.155a17.052 17.052 0 00-3.361-1.432l-.033-.01c-9.038-2.75-18.634 2.358-21.4 11.4-2.77 9.055 2.333 18.675 11.381 21.451 7.639 2.342 15.681-.936 19.668-7.464a17.112 17.112 0 001.765-3.93c.912-2.977.998-6.14.254-9.144l1.283-.318a18.49 18.49 0 01-.275 9.849 18.5 18.5 0 01-1.9 4.232c-4.294 7.03-12.958 10.56-21.182 8.039a18.373 18.373 0 01-4.228-1.899z" fill="#D4B982"/><g clip-path="url(#clip1)"><rect x="258.663" y="109.549" width="47.278" height="47.317" rx="23.639" fill="#fff"/><path d="M272.845 124.152h-2.611l7.118 20.137 3.985-11.396-3.089-8.741h-2.755v-1.919h12.199v1.919h-2.857l7.118 20.137 2.558-7.317c3.357-9.376-2.751-12.296-2.751-14.389a3.787 3.787 0 014.116-3.772 19.698 19.698 0 00-13.574-5.399c-6.867 0-12.917 3.504-16.463 8.821h7.006v1.919zM262.523 133.208c0 7.579 4.256 14.162 10.506 17.488l-8.926-25.253a19.744 19.744 0 00-1.58 7.765zM299.516 123.453c.283 1.667.197 3.541-.237 5.422h.078l-.299.856c-.177.617-.4 1.249-.654 1.87l-6.805 19.082c6.237-3.33 10.482-9.906 10.482-17.475a19.72 19.72 0 00-2.565-9.755z" fill="#D4B982"/><path d="M276.202 152.043a19.74 19.74 0 006.1.961c2.03 0 3.989-.307 5.834-.876l-5.786-16.368-6.148 16.283z" fill="#D4B982"/><path d="M299.017 116.478a23.474 23.474 0 00-16.715-6.929c-6.314 0-12.25 2.461-16.715 6.929a23.515 23.515 0 00-6.924 16.73c0 6.319 2.459 12.26 6.924 16.729 4.465 4.468 10.401 6.929 16.715 6.929s12.251-2.461 16.716-6.929a23.518 23.518 0 006.923-16.729c0-6.32-2.459-12.261-6.924-16.73zm-16.715 38.719c-12.115 0-21.971-9.864-21.971-21.989 0-12.126 9.856-21.99 21.971-21.99s21.972 9.864 21.972 21.99c0 12.125-9.857 21.989-21.972 21.989z" fill="#D4B982"/></g><path d="M153.967 182.827a.73.73 0 00.76.381l8.8-1.366a38.844 38.844 0 009.672 8.032l.287 8.903c.01.311.218.582.516.675l10.207 3.156a.735.735 0 00.807-.268l5.256-7.189a38.786 38.786 0 0012.515-1.175l6.498 6.094a.732.732 0 00.843.113l9.447-4.993a.726.726 0 00.381-.76l-1.366-8.807a38.878 38.878 0 008.026-9.68l8.895-.288a.734.734 0 00.675-.516l3.153-10.216a.733.733 0 00-.267-.807l-7.183-5.26a38.906 38.906 0 00-1.174-12.526l6.089-6.504a.73.73 0 00.112-.843l-4.988-9.455a.726.726 0 00-.76-.381l-8.799 1.367a38.862 38.862 0 00-9.672-8.033l-.288-8.903a.732.732 0 00-.516-.674l-10.207-3.157a.735.735 0 00-.807.268l-5.255 7.189a38.803 38.803 0 00-12.515 1.175l-6.499-6.094a.732.732 0 00-.843-.113l-9.447 4.993a.73.73 0 00-.38.761l1.365 8.806a38.878 38.878 0 00-8.026 9.68l-8.895.288a.732.732 0 00-.674.516l-3.154 10.216a.735.735 0 00.268.807l7.183 5.261a38.875 38.875 0 001.173 12.525l-6.089 6.504a.733.733 0 00-.112.843l4.988 9.455z" fill="#D4B982"/><path d="M199.885 163.877l-.007.007a10.28 10.28 0 01-7.47 2.647 10.281 10.281 0 01-7.153-3.415 10.31 10.31 0 01-2.648-7.476c.297-5.707 5.18-10.107 10.882-9.809a10.278 10.278 0 017.153 3.414 10.317 10.317 0 012.648 7.477 10.301 10.301 0 01-3.405 7.155zm-12.707-14.096a8.578 8.578 0 00-2.832 5.951 8.571 8.571 0 002.201 6.22 8.572 8.572 0 005.95 2.842 8.554 8.554 0 006.214-2.204l.007-.006a8.58 8.58 0 002.833-5.952 8.567 8.567 0 00-2.202-6.219 8.562 8.562 0 00-5.95-2.842 8.553 8.553 0 00-6.214 2.203c-.003.003-.007.003-.007.007z" fill="#D4B982"/><path d="M211.017 175.827c-6.749 6.094-16.445 8.588-25.743 5.713a26.686 26.686 0 01-5.213-2.24l.853-1.518a25.196 25.196 0 004.876 2.094c10.31 3.186 21.145-.685 27.277-8.863a24.793 24.793 0 003.867-7.596c1.964-6.361 1.336-13.107-1.771-18.996a25.129 25.129 0 00-3.557-5.101c-2.969-3.292-6.777-5.733-11.117-7.077-13.123-4.055-27.095 3.329-31.148 16.459a24.937 24.937 0 00-.403 13.273l-1.689.414a26.665 26.665 0 01.43-14.2c4.336-14.05 19.284-21.95 33.323-17.61 4.644 1.436 8.72 4.05 11.893 7.57a26.721 26.721 0 013.805 5.458c3.322 6.299 3.996 13.518 1.897 20.323a26.48 26.48 0 01-7.58 11.897z" fill="#D4B982"/><g clip-path="url(#clip2)"><rect x="156.088" y="119.383" width="73.882" height="73.943" rx="36.941" fill="#fff"/><path d="M178.25 142.203h-4.08l11.124 31.469 6.227-17.81-4.828-13.659h-4.305v-2.998h19.063v2.998h-4.464l11.123 31.469 3.998-11.435c5.245-14.651-4.299-19.215-4.299-22.485 0-3.27 2.649-5.92 5.916-5.92.176 0 .348.009.516.025-5.535-5.23-12.999-8.437-21.212-8.437-10.732 0-20.185 5.475-25.727 13.785h10.948v2.998zM162.12 156.354c0 11.844 6.651 22.131 16.418 27.329l-13.948-39.462a30.85 30.85 0 00-2.47 12.133zM219.929 141.111c.442 2.606.308 5.534-.37 8.474h.123l-.468 1.336a28.885 28.885 0 01-1.021 2.923l-10.636 29.82c9.747-5.204 16.381-15.481 16.381-27.309a30.813 30.813 0 00-4.009-15.244z" fill="#D4B982"/><path d="M183.496 185.788a30.874 30.874 0 009.533 1.501c3.173 0 6.234-.479 9.116-1.368l-9.041-25.579-9.608 25.446z" fill="#D4B982"/><path d="M219.15 130.211c-6.977-6.982-16.254-10.828-26.121-10.828-9.868 0-19.144 3.846-26.121 10.828-6.978 6.983-10.82 16.268-10.82 26.143 0 9.876 3.842 19.16 10.82 26.143 6.977 6.983 16.254 10.829 26.121 10.829 9.867 0 19.144-3.846 26.121-10.829 6.977-6.983 10.82-16.267 10.82-26.143 0-9.875-3.843-19.16-10.82-26.143zm-26.121 60.507c-18.933 0-34.335-15.416-34.335-34.364 0-18.948 15.402-34.363 34.335-34.363 18.932 0 34.335 15.415 34.335 34.363s-15.403 34.364-34.335 34.364z" fill="#D4B982"/></g><path d="M617.223 445.078c.72 0 1.305-.585 1.305-1.307V287.379c0-.721-.585-1.307-1.305-1.307-.721 0-1.306.586-1.306 1.307v156.389a1.305 1.305 0 001.306 1.31zM652.648 445.078c.721 0 1.306-.585 1.306-1.307V287.379c0-.721-.585-1.307-1.306-1.307-.72 0-1.305.586-1.305 1.307v156.389c0 .725.585 1.31 1.305 1.31zM739.691 446.07a1.307 1.307 0 001.203-1.823l-66.851-157.381a1.308 1.308 0 10-2.406 1.025l66.851 157.382a1.3 1.3 0 001.203.797z" fill="#5C5C5C"/><path d="M698.393 446.07a1.307 1.307 0 001.203-1.823l-66.851-157.381a1.308 1.308 0 10-2.406 1.025l66.851 157.382c.212.5.698.797 1.203.797z" fill="#5C5C5C"/><path d="M614.282 288.822h63.063a.93.93 0 00.929-.93v-1.83a.93.93 0 00-.929-.929h-63.063a.93.93 0 00-.928.929v1.827c0 .516.413.933.928.933zM641.645 312.754h41.415a1.307 1.307 0 000-2.613h-41.415a1.306 1.306 0 000 2.613zM695.768 339.902h-41.415v2.617h41.415v-2.617zM708.07 369.666h-41.415v2.617h41.415v-2.617zM679.557 402.047h41.415a1.307 1.307 0 000-2.613h-41.415a1.306 1.306 0 000 2.613zM692.029 431.813h41.415a1.307 1.307 0 000-2.614h-41.415a1.307 1.307 0 000 2.614z" fill="#5C5C5C"/><path d="M437.389 461.059c-3.088.268-8.446.701-12.67.886-2.539.113-4.003-.135-4.843-.473 0 .096.003.185.007.268.019.443.38.801.829.827 7.983.447 14.33.156 16.591.017.466-.03.747-.536.506-.937a5.611 5.611 0 00-.42-.588z" fill="#292620"/><path d="M424.718 461.944c4.225-.185 9.583-.618 12.67-.886-3.034-3.729-12.67-6.24-12.67-6.24h-2.72c-1.871 2.7-2.142 5.27-2.123 6.653.84.338 2.301.586 4.843.473z" fill="#5C5C5C"/><path d="M421.538 450.373l.255 5.045c.026.546.436 1.006.981 1.082a4.44 4.44 0 002.043-.169c.476-.159.827-.559.916-1.048l.879-4.91h-5.074z" fill="#D4B982"/><path d="M386.192 461.909c-1.339-.185-1.944-.883-2.198-1.628-.004.007-.004.014-.007.02-.198.784.261 1.598 1.173 1.985 1.105.467 2.311.546 3.246.51 1.005-.043 1.928-.457 2.433-1.125l.007-.01c-1.005.499-2.423.559-4.654.248z" fill="#5C5C5C"/><path d="M392.502 450.34h-2.245c-3.418-.069-5.566 7.146-6.267 9.942.254.744.859 1.439 2.198 1.627 2.234.311 3.649.252 4.657-.248 1.848-2.431 2.764-5.994 3.204-8.072.502-2.365-1.547-3.249-1.547-3.249z" fill="#5C5C5C"/><path d="M390.55 445.66l-1.246 4.959a1.346 1.346 0 00.701 1.525c.697.358 1.679.735 2.582.626a1.12 1.12 0 00.915-.751l1.828-5.221-4.78-1.138z" fill="#D4B982"/><path d="M389.062 447.095c1.55 1.376 6.594 1.558 6.594 1.558 18.167-43.636 25.598-49.836 25.598-49.836-2.624 16.469-.423 52.933-.423 52.933 2.998 1.323 6.862 0 6.862 0a281.319 281.319 0 019.276-69.018c-12.277-.274-18.809-4.482-20.941-6.17-10.234 16.515-26.966 70.533-26.966 70.533z" fill="#5C5C5C"/><path d="M419.148 326.383c-2.324 11.602-1.491 32.365-.946 41.837.156 2.663-1.702 6.351-3.203 8.869a.794.794 0 00.317 1.112c2.513 1.293 11.024 5.3 20.891 5.796a1.406 1.406 0 001.415-1.052c7.319-27.347 15.817-44.824 15.817-44.824-9.381-14.997-34.291-11.738-34.291-11.738z" fill="#5C5C5C"/><path d="M422.491 397.786a.586.586 0 01-.496-.887c.099-.162 2.446-3.963 7.203-6.259a.582.582 0 11.506 1.049c-4.433 2.14-6.694 5.779-6.714 5.816a.578.578 0 01-.499.281z" fill="#292620"/><path d="M404.571 359.677c.747 5.406 2.952 11.302 7.365 17.561l1.675-1.37s-1.937-7.86-.836-16.783c-2.72-.529-5.937.02-8.204.592z" fill="#5C5C5C"/><path d="M421.743 340.698l-2.595-14.315s-17.344 13.266-14.578 33.294c2.271-.575 5.484-1.121 8.205-.592.793-6.425 3.163-13.402 8.968-18.387zM453.444 338.121l-6.694 14.431c1.081 8.711 5.758 12.479 10.799 13.921.314-3.97 1.319-7.179 2.248-9.395-6.443-6.657-6.353-18.957-6.353-18.957z" fill="#5C5C5C"/><path d="M459.797 357.078c-.933 2.22-1.934 5.426-2.248 9.396 13.45 5.223 17.01-4.907 17.01-4.907l-2.486-.44c-5.616.596-9.536-1.217-12.276-4.049z" fill="#5C5C5C"/><path d="M447.276 320.309l-3.233 11.89a2.31 2.31 0 01-3.091 1.538c-1.385-.556-3.144-1.31-4.658-2.131a3.116 3.116 0 01-1.097-4.479l6.72-10.027 5.359 3.209z" fill="#D4B982"/><path d="M480.724 353.611l-82.813 30.165c-3.474 1.264-5.134 5.224-3.603 8.592l.251.552a5.89 5.89 0 007.841 2.912l80.41-37.228-2.086-4.993z" fill="#292620"/><path opacity=".34" d="M518.788 375.641c22.577 0 40.879-17.988 40.879-40.176 0-22.189-18.302-40.176-40.879-40.176-22.577 0-40.88 17.987-40.88 40.176 0 22.188 18.303 40.176 40.88 40.176z" fill="#DDD"/><path d="M518.788 290.76c-25.122 0-45.487 20.015-45.487 44.705 0 24.689 20.365 44.704 45.487 44.704 25.122 0 45.488-20.015 45.488-44.704 0-24.69-20.366-44.705-45.488-44.705zm0 82.846c-21.433 0-38.807-17.074-38.807-38.138 0-21.064 17.374-38.138 38.807-38.138 21.433 0 38.807 17.074 38.807 38.138 0 21.06-17.374 38.138-38.807 38.138z" fill="#292620"/><path d="M476.504 340.731a41.103 41.103 0 01-.281-3.202.255.255 0 11.509-.027 41.59 41.59 0 00.278 3.163.256.256 0 01-.222.284c-.01 0-.023.004-.033.004a.256.256 0 01-.251-.222zm.522-12.284a.255.255 0 01-.205-.297 41.184 41.184 0 012.45-8.393c6.551-15.903 22.061-26.179 39.517-26.179 8.139 0 16.052 2.263 22.885 6.544a.256.256 0 11-.275.433c-6.75-4.231-14.567-6.467-22.613-6.467-17.248 0-32.573 10.149-39.045 25.86v.004a40.56 40.56 0 00-2.42 8.29.258.258 0 01-.251.212.161.161 0 01-.043-.007z" fill="#5C5C5C"/><path d="M454.346 311.273c.03.205-2.694 13.57-2.694 13.57l-7.592-1.72.7-13.051s9.094-2.217 9.586 1.201z" fill="#D4B982"/><path d="M446.469 312.98l-.905 6.842a.95.95 0 000 .261c.076.536.476 2.362 2.317 1.84 1.669-.473 3.203-.88 4.261-.556.476.145.76.628.661 1.115-.248 1.214-.856 3.94-1.749 6.226a.962.962 0 01-1.167.569c-1.441-.42-4.452-1.389-6.69-2.739a.96.96 0 01-.47-.867c.073-1.727.275-6.977.106-8.449-.158-1.383-1.854-2.21-2.588-2.505a.943.943 0 01-.526-.529c-.34-.854-.809-2.832 1.68-3.642a.965.965 0 00.611-1.248c-.37-1.029-.525-2.597 1.402-3.46 1.957-.88 3.421.165 4.211 1.015a.959.959 0 001.226.146c.225-.142.516-.189.866.03.473.294 1.101.092 1.342-.407.47-.963 1.425-1.995 3.342-1.667 3.402.582 3.788 4.357 2.889 6.566-.895 2.21-4.548 1.37-6.383.255-1.391-.847-3.199.04-3.986.516a.93.93 0 00-.45.688z" fill="#292620"/><path d="M442.525 319.713s1.398-3.92-.039-4.88c-1.438-.959-3.564-.463-3.098 2.379.585 3.533 3.137 2.501 3.137 2.501zM412.92 375.635l7.828-.639 3.391 3.13s-.803 1.108-3.308.473c-2.509-.639-5.944-.794-5.944-.794s-3.461 1.561-3.504-1.36l1.537-.81zM473.561 363.422c.678.529 2.998-.576 4.416-1.34a1.636 1.636 0 00.79-1.932c-.34-1.079-.912-2.471-1.613-2.647-1.163-.291-6.383 3.735-3.593 5.919z" fill="#D4B982"/><path d="M399.544 394.624a.255.255 0 00.082-.496c-2.357-.818-3.593-2.141-3.672-3.934-.079-1.816 1.068-3.507 2.856-4.205l9.943-3.88a.255.255 0 00-.185-.477l-9.943 3.881c-1.99.777-3.269 2.666-3.18 4.701.089 2.025 1.438 3.503 4.013 4.393a.21.21 0 00.086.017zM411.728 380.931c.03 0 .063-.007.093-.017l1.289-.503a.255.255 0 00.145-.331.255.255 0 00-.33-.146l-1.29.504a.255.255 0 00.093.493zM109.067 218.662l-3.699 3.649c-5.249-.506-9.295-2.141-12.403-4.215 1.871-4.655 3.769-7.414 5.263-9.032 4.885 6.882 10.839 9.598 10.839 9.598z" fill="#5C5C5C"/><path d="M83.323 205.004l8.73-13.656c.572 7.705 3.174 13.494 6.175 17.719-1.49 1.618-3.392 4.38-5.262 9.031-7.759-5.174-9.643-13.094-9.643-13.094zM74.038 312.95c4.35.202 8.565.076 11.378-.069-2.562-1.823-8.46-5.793-13.398-7.375l-3.388-.201s-1.147 1.746-1.557 5.746c.562.705 2.202 1.681 6.965 1.899z" fill="#5C5C5C"/><path d="M85.453 312.907a1.535 1.535 0 01-.037-.027c-2.813.146-7.024.272-11.377.07-4.764-.219-6.406-1.198-6.968-1.899-.02.185-.04.367-.053.562a1.588 1.588 0 001.457 1.714c3.564.271 12.4.88 16.664.658.562-.03.77-.751.314-1.078z" fill="#292620"/><path d="M42.913 311.787c-.317-2.045-.83-5.002-1.223-5.757-.618-1.184-2.74 0-2.74 0s-1.488.695-2.175 1.853c-.436.738-1.646 2.838-2.463 4.264a.99.99 0 00-.129.506l8.492.298a1.67 1.67 0 00.238-1.164z" fill="#5C5C5C"/><path d="M34.186 312.656c.013.487.4.927.942.94l6.05.166a1.708 1.708 0 001.5-.811l-8.492-.295z" fill="#292620"/><path d="M43.564 299.234c-.072.245-1.17 5.568-1.65 7.904a1.333 1.333 0 01-1.37 1.065c-.361-.016-.778-.049-1.217-.106a1.608 1.608 0 01-1.399-1.535c-.079-2.048-.115-5.975.635-7.496 1.031-2.101 5.001.168 5.001.168zM67.962 300.759c.47-.017-.188 2.431.526 4.837.162.542.565.969 1.13.976.367.003.8-.004 1.24-.037a1.362 1.362 0 001.256-1.231l.579-6.236-4.73 1.691z" fill="#D4B982"/><path d="M81.124 234.456c-.211 1.022-7.622 44.297-8.072 66.691a.76.76 0 01-.654.741c-.942.133-2.774.301-4.552-.03a.537.537 0 01-.443-.492c-.258-4.172-2.344-39.458.208-56.066 0 0-21.08 44.401-24.272 56.641-.08.298-.35.5-.658.483-.903-.046-2.78-.212-4.27-.761a1.114 1.114 0 01-.705-1.313c1.785-7.328 14.296-57.806 22.788-68.928l20.63 3.034z" fill="#5C5C5C"/><path d="M67.615 245.58a.283.283 0 01-.195-.079.274.274 0 01-.003-.391l2.823-2.888a.274.274 0 01.39-.003c.11.106.113.281.003.39l-2.822 2.888a.282.282 0 01-.196.083z" fill="#292620"/><path d="M93.173 180.275c-5.414-1.419-15.4-3.642-23.353-3.169-1.825.109-3.29 1.555-3.392 3.381-1.2 21.193-2.843 39.997-5.933 50.941 6.948 2.752 13.833 4.026 20.63 3.027 5.09-10.911 9.54-23.509 13.344-37.817 0 0 2.231-11.41.066-15.215-.34-.589-.783-.996-1.362-1.148z" fill="#5C5C5C"/><path d="M80.152 165.432s-1.368 8.164-1.775 11.939a1.479 1.479 0 00.803 1.476c1.495.771 4.684 2.011 8.162.873a1.38 1.38 0 00.935-1.343l-.238-10.898-7.887-2.047z" fill="#D4B982"/><path d="M89.07 156.387s2.637 6.064 2.815 9.246c.179 3.183.863 5.251-2.816 5.889-3.679.642-6.776-1.191-8.456-4.364 0 0-2.63-4.886-2.039-6.887.592-1.999 10.495-3.884 10.495-3.884z" fill="#D4B982"/><path d="M81.872 164.879h.466s-1.917-3.934-.231-4.622c1.682-.691 8.35-2.051 9.787-4.42 1.389-2.282.15-5.23-1.699-6.057-.115-.053-.254.003-.314.116l-.152.291a.25.25 0 01-.46-.047c-.059-.205-.333-.248-.445-.069-.44.708-1.633 1.859-4.83 2.451-4.538.837-7.537 2.677-7.612 5.816a.25.25 0 01-.387.205c-.334-.205-.873-.301-1.587.305-1.246 1.049-.737 3.768 1.997 6.004.129.106.129.308-.014.401-.495.324-1.233 1.091.681 2.114 1.957 1.045 3.114.933 3.55.82a.25.25 0 00.189-.258l-.172-2.782a.25.25 0 01.248-.265h.985v-.003z" fill="#5C5C5C"/><path d="M81.984 165.461s-1.004-3.874-2.74-2.789c-1.735 1.085.9 4.341 2.297 4.486l.443-1.697z" fill="#D4B982"/><path d="M25.671 228.493l-3.563.9c-6.112 1.545-10.224 6.143-9.183 10.269l1.24 4.906c1.04 4.125 6.842 6.216 12.954 4.668l3.563-.9c.235-.06.47-.126.704-.195l104.469-31.283-2.698-10.686-106.772 22.155c-.238.05-.476.106-.714.166zm1.537 4.893c4.601-1.165 8.895.109 9.586 2.848.691 2.736-2.479 5.899-7.084 7.063-4.6 1.165-8.895-.109-9.586-2.848-.69-2.736 2.48-5.899 7.084-7.063z" fill="#B89B61"/><path d="M167.892 191.655l-20.673 5.231a4.902 4.902 0 00-3.292 2.802l-3.094 7.146a4.896 4.896 0 001.464 5.792l6.115 4.817a4.884 4.884 0 004.225.9l20.673-5.23c3.117-.788 5.768 2.468 4.294 5.329-3.521 6.845-9.983 12.261-18.211 14.342-14.865 3.761-28.024-5.254-31.637-19.565-3.613-14.312 3.682-28.501 18.547-32.263 8.225-2.081 16.482-.39 22.832 3.96 2.657 1.823 1.874 5.949-1.243 6.739z" fill="#B89B61"/><path d="M168.384 193.603l-20.673 5.231a4.9 4.9 0 00-3.292 2.802l-3.094 7.146a4.896 4.896 0 001.464 5.792l6.116 4.817a4.881 4.881 0 004.224.9l20.673-5.23c3.117-.788 5.768 2.468 4.294 5.329-3.521 6.845-9.983 12.261-18.21 14.342-14.865 3.761-28.025-5.254-31.638-19.565-3.613-14.312 3.683-28.501 18.548-32.26 8.224-2.08 16.481-.39 22.831 3.961 2.658 1.822 1.874 5.948-1.243 6.735z" fill="#D4B982"/><path d="M26.066 230.048l-3.564.899c-6.112 1.545-10.224 6.144-9.183 10.269l1.24 4.906c1.041 4.126 6.842 6.217 12.954 4.668l3.564-.899c.234-.06.47-.126.704-.196l104.468-31.283-2.697-10.685L26.78 229.882c-.242.05-.476.106-.714.166zm1.533 4.892c4.602-1.164 8.896.11 9.586 2.849.691 2.736-2.479 5.899-7.083 7.063-4.602 1.165-8.896-.109-9.586-2.848-.688-2.736 2.482-5.899 7.083-7.064z" fill="#D4B982"/><path d="M52.42 208.499c-2.678 7.52-1.171 15.579-1.171 15.579l-3.53.942s-4.559-5.428-3.517-17.471c3.259-.496 6.31.268 8.217.95z" fill="#5C5C5C"/><path d="M44.206 207.549c.116-1.353.301-2.789.576-4.311 2.383-13.282 19.4-23.502 23.403-25.738a.548.548 0 01.813.5l-.569 18.056c-9.476 1.274-13.962 6.703-16.005 12.443-1.91-.682-4.962-1.446-8.218-.95z" fill="#5C5C5C"/><path d="M116.511 225.287a2.282 2.282 0 001.477-1.28c.543-1.214 1.154-3.163-.152-3.755-1.94-.883-5.47 2.736-5.47 2.736l-1.726 2.799-1.577.767c1.448.397 4.232-.264 7.448-1.267zM51.013 222.314h4.363s-3.54 2.124-3.656 4.361c-.119 2.233 1.405 6.861 2.12 8.122.78 1.379-9.881-2.052-6.12-12.483h3.293z" fill="#D4B982"/><path d="M601.32 177.015l.053 1.631c5.011 6.984 9.57 5.201 12.71 3.107-1.891-4.705-2.225-5.224-3.732-6.858-5.669 4.125-9.031 2.12-9.031 2.12z" fill="#5C5C5C"/><path d="M624.162 169.353l-8.82-13.802c-.578 7.784-1.956 15.076-4.991 19.343 1.507 1.635 1.845 2.154 3.732 6.858 7.834-5.23 10.079-12.399 10.079-12.399zM632.819 285.17c-4.396.202-8.654.076-11.497-.069 2.589-1.843 8.548-5.853 13.536-7.451l3.425-.205s1.16 1.767 1.573 5.806c-.565.712-2.224 1.698-7.037 1.919z" fill="#5C5C5C"/><path d="M621.287 285.126l.036-.027c2.843.146 7.097.275 11.497.07 4.813-.222 6.472-1.211 7.041-1.919.02.185.039.371.053.566a1.604 1.604 0 01-1.475 1.733c-3.599.272-12.531.89-16.835.665a.6.6 0 01-.317-1.088z" fill="#292620"/><path d="M664.266 283.993c.321-2.065.84-5.052 1.237-5.816.624-1.198 2.77 0 2.77 0s1.504.701 2.195 1.872a724.35 724.35 0 012.489 4.308.95.95 0 01.129.512l-8.578.302a1.724 1.724 0 01-.242-1.178z" fill="#5C5C5C"/><path d="M673.09 284.871a.976.976 0 01-.952.95l-6.112.169a1.728 1.728 0 01-1.517-.818l8.581-.301z" fill="#292620"/><path d="M663.613 271.312c.073.248 1.184 5.627 1.67 7.986.135.652.72 1.111 1.385 1.078.363-.016.786-.049 1.229-.109a1.625 1.625 0 001.415-1.551c.079-2.068.119-6.038-.641-7.576-1.048-2.124-5.058.172-5.058.172zM638.958 272.848c-.476-.016.188 2.459-.529 4.887-.162.549-.572.979-1.144.986a14.25 14.25 0 01-1.252-.04 1.377 1.377 0 01-1.27-1.244l-.585-6.302 4.78 1.713z" fill="#D4B982"/><path d="M625.659 205.854c.212 1.036 7.702 44.765 8.158 67.39a.771.771 0 00.661.751c.952.132 2.803.304 4.598-.03a.545.545 0 00.447-.499c.261-4.218 2.366-39.868-.212-56.651 0 0 21.298 44.863 24.527 57.233a.65.65 0 00.665.486c.912-.049 2.809-.211 4.317-.767.538-.199.846-.768.71-1.327-1.804-7.404-14.445-58.411-23.029-69.649l-20.842 3.063z" fill="#5C5C5C"/><path d="M613.482 151.107c5.471-1.436 15.563-3.702 23.595-3.202 2.625.165 3.121 2.636 3.226 4.482 1.214 21.415 3.075 39.349 6.198 50.405-7.021 2.779-13.979 4.069-20.844 3.06-5.144-11.026-9.639-23.753-13.484-38.21 0 0-2.254-11.53-.066-15.374.344-.599.793-1.009 1.375-1.161z" fill="#5C5C5C"/><path d="M626.641 136.105s1.382 8.248 1.795 12.062a1.498 1.498 0 01-.81 1.492c-1.51.778-4.733 2.032-8.244.881a1.397 1.397 0 01-.945-1.36l.241-11.013 7.963-2.062z" fill="#D4B982"/><path d="M593.424 92.617a.41.41 0 00.155-.556l-.562-.996-.043.023-3.299-5.36a.405.405 0 00-.559-.131l-.624.387a.405.405 0 00-.133.559l3.048 4.946a.407.407 0 01-.145.569l-23.946 13.514a.41.41 0 00-.155.556l.562.996.007-.004 7.781 13.809a.408.408 0 00.555.155l.638-.36a.409.409 0 00.155-.556l-7.579-13.455a.41.41 0 01.155-.555l23.989-13.541z" fill="#292620"/><path d="M583.647 74.078l6.363 11.295-49.626 28.011-6.366-11.295 49.629-28.01z" fill="#5C5C5C"/><path d="M626.673 216.858l-3.137 1.588a.494.494 0 01-.664-.219l-49.53-97.925a.494.494 0 01.218-.665l3.137-1.588a.494.494 0 01.664.219l49.53 97.925a.494.494 0 01-.218.665zM539.285 106.502c1.772 3.143 2.261 6.223 1.098 6.881-1.164.658-3.544-1.356-5.316-4.499-1.771-3.143-2.261-6.223-1.097-6.882 1.163-.655 3.543 1.36 5.315 4.5z" fill="#292620"/><path d="M588.587 78.733c1.772 3.143 2.261 6.223 1.097 6.882-1.163.658-3.543-1.357-5.315-4.5-1.772-3.143-2.261-6.223-1.097-6.881 1.163-.658 3.543 1.356 5.315 4.5z" fill="#5C5C5C"/><path d="M600.518 177.267a2.1 2.1 0 01-.247-1.78c.36-1.168 1.113-2.881 2.373-2.504 1.874.566 2.125 5.204 2.125 5.204l-.499 2.977.625 1.486c-1.236-.602-2.76-2.746-4.377-5.383zM643.935 187.743a46.996 46.996 0 002.294-3.553c7.503-12.862-6.258-32.563-6.258-32.563l-4.195 12.495c6.202 6.921 3.597 13.601 1.488 19.142-2.763 7.255-14.706 13.405-14.706 13.405l2.274 2.809c-.003.003 12.277-2.16 19.103-11.735z" fill="#D4B982"/><path d="M648.652 171.267c-.156-9.987-8.082-20.597-9.53-22.463a.222.222 0 00-.377.046l-2.972 15.275c1.263 2.951 1.005 4.807 2.265 7.466 3.408-.476 6.571-.502 9.936.229a.56.56 0 00.678-.553z" fill="#5C5C5C"/><path d="M622.555 196.671c-.698-.354-6.165.443-5.329 1.197 1.471 1.32 1.534 2.319-.013 3.553-.764.609-2.516 1.535-2.995.113-.135-.401-.152-.92-.532-1.102-.281-.136-1.078.83-1.124 1.138-.264 1.734 1.117 3.176 2.641 3.748.741.278 1.527.397 2.307.516.433.067 1.518.225 1.617.186.112-.05.182-.166.264-.255.357-.397 2.265-2.001 2.678-2.541.224-.291 3.08-3.897 2.935-4.241 0-.003-1.861-2.011-2.449-2.312zM617.079 127.318s-4.417 8.324-3.851 11.685c.565 3.361 6.042 3.12 10.822.391l3.342-8.986-10.313-3.09z" fill="#D4B982"/><path d="M623.839 134.981a.343.343 0 01-.149-.503c.353-.542 1.018-1.644 1.229-2.61 0 0 .794-.51-2.019-1.185-2.817-.674-7.015-1.72-7.897-4.118-.86-2.339 1.401-8.218 5.008-3.534a.341.341 0 00.542.004c.591-.771 2.145-2.369 4.304-1.4 2.019.907 2.247 2.389 2.218 3.137a.343.343 0 00.403.35c1.021-.195 3.471-.364 4.614 2.154.943 2.071.331 3.245-.228 3.818a.343.343 0 00.146.569c.671.205 1.537.774 1.451 2.349-.119 2.176-2.549 1.985-3.243 1.885a.342.342 0 00-.304.109c-.592.659-3.266 3.448-6.158 3.785a.347.347 0 01-.364-.456l1.253-3.643a.344.344 0 00-.185-.427l-.621-.284z" fill="#292620"/><path d="M623.332 135.497s3.146-2.16 3.375-.34c.231 1.819-2.833 2.633-4.351 1.955l.976-1.615z" fill="#D4B982"/><defs><clipPath id="clip0"><rect x="246.054" y="183.154" width="31.519" height="31.545" rx="15.759" fill="#fff"/></clipPath><clipPath id="clip1"><rect x="258.663" y="109.549" width="47.278" height="47.317" rx="23.639" fill="#fff"/></clipPath><clipPath id="clip2"><rect x="156.088" y="119.383" width="73.882" height="73.943" rx="36.941" fill="#fff"/></clipPath></defs></svg>