<svg width="260" height="260" fill="none" xmlns="http://www.w3.org/2000/svg"><path d="M77.992 80.24H63.634l39.144 110.652 21.914-62.623-16.99-48.028h-15.15V69.697h67.086v10.544h-15.71l39.143 110.651 14.071-40.21c18.458-51.516-15.128-67.564-15.128-79.061 0-11.497 9.32-20.817 20.817-20.817.622 0 1.226.034 1.818.089-19.48-18.39-45.747-29.666-74.65-29.666-37.767 0-71.033 19.25-90.535 48.47h38.527v10.544h.001zM21.226 130.001c0 41.644 23.407 77.816 57.778 96.094L29.916 87.335c-5.591 13.101-8.69 27.521-8.69 42.666zM224.665 76.4c1.556 9.162 1.085 19.458-1.303 29.795h.433l-1.645 4.7c-.975 3.393-2.202 6.864-3.596 10.275l-37.428 104.855c34.3-18.3 57.646-54.434 57.646-96.025 0-19.489-5.13-37.779-14.107-53.6z" fill="#D4B982"/><path d="M96.453 233.492a108.67 108.67 0 0033.547 5.28c11.167 0 21.94-1.685 32.082-4.812l-31.818-89.94-33.81 89.472z" fill="#D4B982"/><path d="M221.923 38.076C197.37 13.522 164.724 0 129.999 0c-34.724 0-67.37 13.522-91.923 38.076C13.522 62.629 0 95.276 0 130c0 34.724 13.522 67.37 38.076 91.923 24.553 24.554 57.2 38.076 91.924 38.076 34.724 0 67.37-13.522 91.924-38.076C246.478 197.37 260 164.724 260 130c-.001-34.725-13.523-67.37-38.077-91.924zm-91.924 212.753C63.374 250.829 9.171 196.625 9.171 130S63.374 9.17 129.999 9.17c66.626 0 120.829 54.205 120.829 120.83s-54.203 120.829-120.829 120.829z" fill="#D4B982"/></svg>